# xmcd
#
# Track frame offsets:
#	150
#	14143
#	28266
#	41788
#	54416
#	68327
#	79979
#	92337
#	106130
#	119153
#	129578
#	143228
#	155559
#
# Disc length: 2266 seconds
# Revision: 0
# Processed by: cddbd v1.5.2PL0 Copyright (c) Steve Scherf et al.
# Submitted via: dBpowerAMP V12.0
#
DISCID=b308d80d
DTITLE=Dennis Stroughmatt - One More Time: Tribute To Ray Price's Cherokee Cowboys, Vol. 2
DYEAR=2016
DGENRE=Country
TTITLE0=One More Time
TTITLE1=You Wouldn't Know Love
TTITLE2=Bubbles In My Beer
TTITLE3=Invitation To The Blues
TTITLE4=There Goes My Everything
TTITLE5=Healing Hands Of Time
TTITLE6=My Shoes Keep Walking Back To You
TTITLE7=Take Me Back To Tulsa
TTITLE8=Lonely Street
TTITLE9=You Done Me Wrong
TTITLE10=I'd Fight The World
TTITLE11=Rubber Dolly
TTITLE12=Wild Side Of Life
EXTD=
EXTT0=
EXTT1=
EXTT2=
EXTT3=
EXTT4=
EXTT5=
EXTT6=
EXTT7=
EXTT8=
EXTT9=
EXTT10=
EXTT11=
EXTT12=
PLAYORDER=
